HIERARCHY
ROOT Hips
{
	OFFSET 0.00000 0.00000 0.00000
	CHANNELS 6 Xposition Yposition Zposition Yrotation Zrotation Xrotation 
	JOINT Lumbar
	{
		OFFSET 0 0 0
		CHANNELS 3 Zrotation Xrotation Yrotation
		JOINT Neck
		{
			OFFSET 0.00 0.2701 0.00
			CHANNELS 3 Zrotation Xrotation Yrotation
			End Site
			{
				OFFSET 0.00 0.1379 0.00
			}
		}
		JOINT RightShoulder
		{
			OFFSET 0.0119 0.2289 0.1181
			CHANNELS 3 Zrotation Xrotation Yrotation
			JOINT RightElbow
			{
				OFFSET 0.00 -0.1475 0.00
				CHANNELS 2 Zrotation Yrotation
				JOINT RightWrist
				{
					OFFSET 0.00 -0.1605 0.00
					CHANNELS 2 Zrotation Xrotation
					End Site
					{
						OFFSET 0.0040 -0.1068 0.0006
					}
				}
			}
		}
		JOINT LeftShoulder
		{
			OFFSET 0.0119 0.2289 -0.1181
			CHANNELS 3 Zrotation Xrotation Yrotation
			JOINT LeftElbow
			{
				OFFSET 0.00 -0.1475 0.00
				CHANNELS 2 Zrotation Yrotation
				JOINT LeftWrist
				{
					OFFSET 0.00 -0.1605 0.00
					CHANNELS 2 Zrotation Xrotation
					End Site
					{
						OFFSET 0.0040 -0.1068 -0.0006
					}
				}
			}
		}
	}
	JOINT RightHip
	{
		OFFSET 0.0316 -0.0424 0.0458
		CHANNELS 3 Zrotation Xrotation Yrotation
		JOINT RightKnee
		{
			OFFSET 0.00 -0.2438 0.00
			CHANNELS 1 Zrotation
			JOINT RightAnkle
			{
				OFFSET 0.00 -0.2449 0.00
				CHANNELS 3 Zrotation Xrotation Yrotation
				End Site
				{
					OFFSET 0.1237 -0.0542 0.0051
				}
			}
		}
	}
	JOINT LeftHip
	{
		OFFSET 0.0316 -0.0424 -0.0458
		CHANNELS 3 Zrotation Xrotation Yrotation
		JOINT LeftKnee
		{
			OFFSET 0.00 -0.2438 0.00
			CHANNELS 1 Zrotation
			JOINT LeftAnkle
			{
				OFFSET 0.00 -0.2449 0.00
				CHANNELS 3 Zrotation Xrotation Yrotation
				End Site
				{
					OFFSET 0.1237 -0.0542 -0.0051
				}
			}
		}
	}
}
MOTION
Frames: 33
Frame Time: 0.02
6e-05 -7e-05 0.00244 165.95636 -30.51413 -2.82994 42.07056 2.02965 -5.67305 -9.52183 -3.58131 -0.4053 -23.49979 -9.823 -6.56748 32.07426 88.59413 6.90782 -1.07449 -24.69552 13.0948 -1.50092 43.53566 -94.46165 14.8663 0.88871 33.80765 -1.83222 -3.30283 -20.34128 -8.92702 -4.95411 -3.39578 35.65746 9.47453 6.27395 -26.43661 -8.63988 4.65148 3.20393
-0.00052 -0.00019 0.00125 165.83694 -30.7927 -2.80853 42.34267 2.039 -5.76154 -9.44661 -3.59491 -0.40578 -23.29074 -9.90774 -6.2954 32.48248 88.56682 6.91784 -1.06863 -24.4336 13.12012 -1.67691 43.52385 -94.49205 14.75877 0.88541 34.06587 -1.855 -3.80611 -20.41179 -8.86206 -4.90193 -3.3628 35.88305 9.40216 5.64048 -26.48005 -8.71574 4.70459 3.23906
-0.0011 -0.00032 7e-05 165.71783 -31.07046 -2.78718 42.61395 2.04833 -5.85013 -9.37181 -3.60851 -0.40625 -23.08222 -9.99237 -6.0239 32.88977 88.53963 6.92779 -1.06278 -24.17263 13.14545 -1.85247 43.51173 -94.52216 14.65149 0.88206 34.32324 -1.87752 -4.30796 -20.48209 -8.79727 -4.8499 -3.32993 36.10785 9.3303 5.00925 -26.5233 -8.79137 4.7575 3.27406
-0.00168 -0.00044 -0.00111 165.59877 -31.34818 -2.76583 42.88522 2.05765 -5.93842 -9.29685 -3.62207 -0.40673 -22.87378 -10.07687 -5.7526 33.29679 88.51241 6.93778 -1.05693 -23.91153 13.17071 -2.02795 43.4999 -94.55242 14.54427 0.87876 34.58066 -1.9002 -4.80971 -20.55239 -8.7325 -4.79787 -3.29706 36.33273 9.2582 4.3778 -26.5666 -8.86699 4.81043 3.30908
-0.00225 -0.00056 -0.00229 165.4794 -31.62671 -2.74442 43.15732 2.06699 -6.02645 -9.2214 -3.63561 -0.40721 -22.6649 -10.16145 -5.48087 33.70463 88.48504 6.94786 -1.05107 -23.64947 13.19592 -2.20377 43.48854 -94.58307 14.43685 0.87554 34.83897 -1.9232 -5.31282 -20.62287 -8.66757 -4.74571 -3.2641 36.55845 9.18548 3.74397 -26.6101 -8.94285 4.86357 3.34423
-0.00283 -0.00068 -0.00348 165.36083 -31.90284 -2.72321 43.42684 2.07628 -6.1162 -9.14799 -3.64934 -0.40769 -22.45715 -10.24618 -5.20988 34.11073 88.45822 6.95753 -1.04525 -23.39082 13.22148 -2.37877 43.47483 -94.61209 14.32987 0.87194 35.09431 -1.94472 -5.81198 -20.69279 -8.60309 -4.69395 -3.2314 36.7813 9.11542 3.11819 -26.6528 -9.01799 4.91601 3.37893
-0.00341 -0.0008 -0.00466 165.24081 -32.18346 -2.70163 43.70126 2.08567 -6.20242 -9.07054 -3.66268 -0.40817 -22.24726 -10.33049 -4.93761 34.51988 88.43037 6.96802 -1.03936 -23.12549 13.24631 -2.55532 43.4658 -94.64422 14.22209 0.86908 35.35533 -1.96921 -6.31855 -20.76378 -8.53777 -4.64144 -3.19821 37.00965 9.04009 2.47709 -26.69708 -9.09448 4.96978 3.41448
-0.00399 -0.00093 -0.00584 165.12209 -32.45999 -2.68038 43.97116 2.09496 -6.29184 -8.99684 -3.67634 -0.40865 -22.03953 -10.41521 -4.66668 34.92619 88.40338 6.97773 -1.03352 -22.86654 13.27184 -2.73029 43.45259 -94.67374 14.1151 0.86557 35.61116 -1.99091 -6.81828 -20.83378 -8.47321 -4.58961 -3.16547 37.23297 8.9696 1.84976 -26.7399 -9.16977 5.02236 3.44927
-0.00457 -0.00104 -0.00704 165.00506 -32.73143 -2.65954 44.23562 2.10416 -6.38552 -8.92761 -3.69058 -0.40913 -21.83357 -10.50042 -4.39657 35.32938 88.37782 6.98658 -1.02777 -22.61444 13.29815 -2.90399 43.43364 -94.69902 14.00882 0.86114 35.86057 -2.0094 -7.30989 -20.9026 -8.40964 -4.53861 -3.13329 37.45005 8.90516 1.24049 -26.78097 -9.24344 5.07336 3.48306
-0.00515 -0.00118 -0.00816 164.87858 -33.03189 -2.63635 44.53165 2.11396 -6.45574 -8.83233 -3.70207 -0.40959 -21.61482 -10.58276 -4.11927 35.7516 88.34514 7.00068 -1.0216 -22.32005 13.31974 -3.087 43.44584 -94.74554 13.89769 0.86163 36.14669 -2.04696 -7.84898 -20.97831 -8.34056 -4.48283 -3.09791 37.70277 8.80631 0.53096 -26.83219 -9.32595 5.13308 3.52236
-0.00572 -0.00128 -0.00945 164.7719 -33.27129 -2.61813 44.76091 2.12245 -6.57471 -8.7922 -3.71895 -0.41011 -21.42477 -10.67117 -3.85877 36.13293 88.32677 7.00351 -1.01627 -22.11671 13.35143 -3.24905 43.39355 -94.7493 13.79727 0.85197 36.35548 -2.0439 -8.28737 -21.03941 -8.28298 -4.43717 -3.06929 37.88046 8.77977 0.03064 -26.86194 -9.39014 5.17462 3.55019
-0.00625 -0.00131 -0.01119 164.72115 -33.33983 -2.61361 44.80613 2.12777 -6.83496 -8.90345 -3.75415 -0.41081 -21.30019 -10.77628 -3.63152 36.40658 88.35419 6.97673 -1.01366 -22.15076 13.41008 -3.36384 43.1521 -94.61704 13.72269 0.81238 36.34864 -1.93158 -8.45196 -21.06064 -8.25806 -4.41917 -3.05931 37.84868 8.95641 0.12982 -26.83261 -9.40063 5.16405 3.54502
-0.00677 -0.00132 -0.01311 164.69002 -33.34748 -2.61403 44.78424 2.13168 -7.14267 -9.06999 -3.79413 -0.4116 -21.207 -10.88743 -3.42363 36.63795 88.39492 6.93849 -1.01185 -22.27854 13.47899 -3.45558 42.84801 -94.44495 13.65949 0.76298 36.26454 -1.77817 -8.51557 -21.06713 -8.24444 -4.41129 -3.05609 37.74204 9.20492 0.43491 -26.78171 -9.39326 5.1356 3.52856
-0.00729 -0.00135 -0.01495 164.6488 -33.38533 -2.61219 44.79382 2.13601 -7.42387 -9.21128 -3.82959 -0.41234 -21.108 -10.99582 -3.21512 36.88621 88.42511 6.90453 -1.00942 -22.37158 13.54377 -3.5513 42.58075 -94.30375 13.59348 0.71943 36.21832 -1.64203 -8.62293 -21.08027 -8.22495 -4.39894 -3.04979 37.67228 9.41724 0.62846 -26.7408 -9.39639 5.11687 3.51829
-0.00783 -0.00135 -0.01676 164.61239 -33.41308 -2.61058 44.79998 2.14142 -7.72641 -9.35351 -3.87488 -0.41307 -20.97294 -11.10448 -2.97163 37.14577 88.47368 6.8741 -1.00803 -22.43168 13.60651 -3.6748 42.27868 -94.10996 13.5177 0.66998 36.1612 -1.51135 -8.73658 -21.09375 -8.20872 -4.3863 -3.04369 37.59114 9.64399 0.89594 -26.69916 -9.38977 5.09157 3.50368
-0.00832 -0.00139 -0.01868 164.57083 -33.4466 -2.60948 44.79636 2.14407 -7.99524 -9.5065 -3.90092 -0.41391 -20.92096 -11.21379 -2.8062 37.36978 88.48787 6.83408 -1.00471 -22.58253 13.67571 -3.73446 42.03351 -94.01441 13.46473 0.63049 36.10729 -1.36004 -8.8164 -21.10284 -8.18819 -4.37636 -3.03858 37.51487 9.85849 1.06112 -26.6538 -9.3988 5.07546 3.49525
-0.00865 -0.00153 -0.02089 164.50832 -33.51898 -2.61019 44.79146 2.14096 -8.16364 -9.67892 -3.87207 -0.41447 -21.0863 -11.32499 -2.8464 37.52305 88.39756 6.76621 -0.99537 -22.96132 13.76194 -3.62794 41.96742 -94.21624 13.47398 0.621 36.09209 -1.15764 -8.79942 -21.10509 -8.15483 -4.3742 -3.0362 37.48064 10.01419 0.86564 -26.60464 -9.45948 5.09161 3.50836
-0.00894 -0.00171 -0.02321 164.44034 -33.59824 -2.61097 44.77776 2.13484 -8.29564 -9.85972 -3.82383 -0.41523 -21.3351 -11.43627 -2.96545 37.63878 88.27337 6.68982 -0.98413 -23.42801 13.854 -3.45718 41.95945 -94.51545 13.50546 0.62184 36.08127 -0.93655 -8.75659 -21.10319 -8.11645 -4.37396 -3.03431 37.4525 10.15609 0.56355 -26.55232 -9.536 5.11728 3.52785
-0.00924 -0.00187 -0.02549 164.37605 -33.66856 -2.61064 44.76142 2.12911 -8.4415 -10.03445 -3.78481 -0.4163 -21.54841 -11.54655 -3.05183 37.76056 88.16882 6.6201 -0.97415 -23.85439 13.94225 -3.31287 41.92066 -94.75914 13.52536 0.6179 36.06064 -0.72699 -8.7448 -21.10197 -8.07913 -4.37095 -3.03105 37.41425 10.30951 0.33054 -26.50061 -9.60235 5.13682 3.54321
-0.00954 -0.00202 -0.02773 164.30719 -33.7595 -2.61492 44.76893 2.12748 -8.60042 -10.22034 -3.74411 -0.41574 -21.75199 -11.66137 -3.1256 37.92752 88.04681 6.53834 -0.96266 -24.28601 14.03572 -3.17919 41.89865 -95.04827 13.55167 0.61404 36.06824 -0.50382 -8.6504 -21.10502 -8.0472 -4.37607 -3.03272 37.40235 10.44462 0.02446 -26.45145 -9.67972 5.1629 3.56304
-0.00985 -0.00221 -0.03009 164.2465 -33.81215 -2.6097 44.72787 2.1166 -8.72278 -10.38465 -3.7024 -0.41855 -21.99589 -11.76635 -3.24402 37.99179 87.95296 6.47959 -0.95367 -24.72583 14.1196 -3.00859 41.85584 -95.26732 13.57006 0.61253 36.02168 -0.30431 -8.72026 -21.09878 -8.00294 -4.36489 -3.02435 37.34053 10.61199 -0.16603 -26.39676 -9.73926 5.17844 3.57564
-0.01017 -0.00253 -0.03272 164.20813 -33.73825 -2.57685 44.53455 2.08107 -8.75351 -10.48384 -3.66131 -0.43132 -22.32538 -11.84685 -3.46682 37.78409 87.9457 6.48844 -0.95381 -25.17091 14.17532 -2.75022 41.74622 -95.26127 13.55865 0.61542 35.8022 -0.18153 -9.27587 -21.06425 -7.92375 -4.30552 -2.98646 37.11756 10.88648 0.06453 -26.32517 -9.73556 5.15724 3.56308
-0.01051 -0.0029 -0.03547 164.17853 -33.62913 -2.53459 44.2964 2.0363 -8.74835 -10.56146 -3.62011 -0.44736 -22.69346 -11.91685 -3.73142 37.47446 87.96824 6.52059 -0.95621 -25.61986 14.22118 -2.45721 41.61336 -95.18291 13.53896 0.62031 35.53218 -0.08208 -9.99315 -21.02116 -7.83267 -4.23017 -2.93875 36.84823 11.19129 0.40194 -26.24856 -9.7151 5.12603 3.54367
-0.01084 -0.00325 -0.03818 164.14559 -33.54944 -2.4976 44.0929 1.99574 -8.7592 -10.6509 -3.57979 -0.46146 -23.04712 -11.9899 -3.97684 37.20968 87.97617 6.54062 -0.95643 -26.06396 14.27173 -2.18134 41.48792 -95.14307 13.52457 0.62402 35.30083 0.03227 -10.62022 -20.98457 -7.74834 -4.16383 -2.89658 36.61529 11.47164 0.63713 -26.17604 -9.70933 5.10314 3.52999
-0.01115 -0.0036 -0.04085 164.10899 -33.41468 -2.45673 43.83034 1.95516 -8.77028 -10.73193 -3.5352 -0.4775 -23.3903 -12.07042 -4.2268 36.94829 87.98562 6.56613 -0.96147 -26.52465 14.3217 -1.89777 41.37655 -95.08303 13.50428 0.62912 35.00502 0.12895 -11.3178 -20.93723 -7.65813 -4.09005 -2.84979 36.31935 11.79471 1.08698 -26.09621 -9.67524 5.06524 3.50589
-0.0115 -0.00394 -0.04363 164.08314 -33.38441 -2.42132 43.67828 1.91229 -8.77258 -10.82553 -3.49982 -0.49027 -23.7637 -12.13265 -4.47496 36.65801 88.0017 6.58671 -0.95701 -26.95002 14.37034 -1.62227 41.23107 -95.0462 13.49427 0.63179 34.82927 0.25689 -11.90626 -20.90978 -7.57748 -4.02814 -2.81039 36.14165 12.03858 1.12686 -26.02988 -9.69472 5.05536 3.50128
-0.01193 -0.00425 -0.04669 164.07668 -33.66646 -2.40628 43.85934 1.86683 -8.7612 -10.95671 -3.48892 -0.49307 -24.20791 -12.14859 -4.7186 36.29746 88.01412 6.58201 -0.92492 -27.28046 14.41864 -1.38325 40.98448 -95.0945 13.51259 0.62635 35.01589 0.47429 -12.16345 -20.94362 -7.52531 -4.00107 -2.79275 36.31803 12.03562 -0.08043 -26.0072 -9.87665 5.13162 3.55647
-0.01239 -0.00456 -0.04985 164.08234 -34.05186 -2.39641 44.1499 1.81909 -8.74192 -11.10195 -3.48727 -0.4925 -24.68125 -12.14602 -4.95705 35.91475 88.03824 6.57346 -0.88271 -27.5739 14.4657 -1.15297 40.7065 -95.16756 13.54191 0.61852 35.3214 0.72415 -12.30412 -20.99689 -7.48335 -3.98675 -2.78303 36.61182 11.95575 -1.68664 -25.99734 -10.11106 5.23517 3.63064
-0.01283 -0.00486 -0.05298 164.08781 -34.38013 -2.38229 44.37938 1.77145 -8.72543 -11.24192 -3.48248 -0.49356 -25.14309 -12.15107 -5.18989 35.55207 88.0628 6.56971 -0.84655 -27.88176 14.51275 -0.91509 40.45075 -95.22654 13.5673 0.61231 35.56061 0.96095 -12.49137 -21.03856 -7.43731 -3.96785 -2.7704 36.84136 11.92482 -3.05167 -25.97822 -10.31451 5.32208 3.69326
-0.01329 -0.00516 -0.05607 164.07099 -34.75068 -2.37616 44.65558 1.72748 -8.71161 -11.37529 -3.47442 -0.49429 -25.59952 -12.15977 -5.45596 35.14237 88.05115 6.5508 -0.80704 -28.20075 14.56207 -0.69065 40.16027 -95.2949 13.58747 0.60388 35.85073 1.19052 -12.70909 -21.09197 -7.38854 -3.94353 -2.7547 37.11579 11.83619 -4.66688 -25.97339 -10.54734 5.42665 3.76806
-0.01372 -0.00548 -0.05925 164.10352 -35.05741 -2.35437 44.86044 1.67538 -8.69011 -11.52743 -3.47385 -0.4949 -26.07296 -12.15575 -5.65344 34.8284 88.13354 6.5661 -0.7687 -28.48667 14.60624 -0.44154 39.93537 -95.35067 13.62179 0.59955 36.06265 1.44224 -12.83616 -21.12524 -7.34795 -3.93341 -2.7472 37.32454 11.84871 -5.85584 -25.94196 -10.73174 5.50089 3.82201
-0.01408 -0.00584 -0.06266 164.2677 -35.16966 -2.29124 44.84741 1.6021 -8.65555 -11.7173 -3.50351 -0.49556 -26.59098 -12.12982 -5.63864 34.77 88.3222 6.64167 -0.76724 -28.69908 14.63862 -0.11543 39.89578 -95.36489 13.68794 0.60636 36.03911 1.75504 -12.71749 -21.10171 -7.32817 -3.96244 -2.76211 37.32988 12.16189 -5.78222 -25.83445 -10.769 5.48625 3.81452
-0.01442 -0.00621 -0.06614 164.48117 -35.21313 -2.21165 44.75826 1.5206 -8.61243 -11.92843 -3.53742 -0.49626 -27.12352 -12.09116 -5.55706 34.81167 88.6249 6.75671 -0.76315 -28.87782 14.66539 0.23447 39.92394 -95.3663 13.76899 0.61748 35.93144 2.08765 -12.51475 -21.05663 -7.31622 -4.0049 -2.78477 37.26452 12.57855 -5.26498 -25.70026 -10.75603 5.43997 3.78533
